<?xml version="1.0" encoding="UTF-8"?>
<svg xmlns="http://www.w3.org/2000/svg" xmlns:xlink="http://www.w3.org/1999/xlink" width="41pt" height="27pt" viewBox="0 0 41 27" version="1.1">
<g id="surface8221">
<path style=" stroke:none;fill-rule:evenodd;fill:rgb(100%,49.803922%,45.098039%);fill-opacity:1;" d="M 10.621094 19.65625 L 16.289062 19.65625 L 16.289062 17.957031 L 10.621094 17.957031 Z M 10.621094 19.65625 "/>
<path style=" stroke:none;fill-rule:evenodd;fill:rgb(100%,49.803922%,45.098039%);fill-opacity:1;" d="M 10.621094 16.054688 L 16.289062 16.054688 L 16.289062 14.355469 L 10.621094 14.355469 Z M 10.621094 16.054688 "/>
<path style=" stroke:none;fill-rule:evenodd;fill:rgb(100%,49.803922%,45.098039%);fill-opacity:1;" d="M 10.621094 12.457031 L 16.289062 12.457031 L 16.289062 10.757812 L 10.621094 10.757812 Z M 10.621094 12.457031 "/>
<path style=" stroke:none;fill-rule:evenodd;fill:rgb(100%,49.803922%,45.098039%);fill-opacity:1;" d="M 10.621094 8.855469 L 16.289062 8.855469 L 16.289062 7.15625 L 10.621094 7.15625 Z M 10.621094 8.855469 "/>
<path style=" stroke:none;fill-rule:evenodd;fill:rgb(100%,49.803922%,45.098039%);fill-opacity:1;" d="M 24.226562 8.855469 L 29.894531 8.855469 L 29.894531 7.15625 L 24.226562 7.15625 Z M 24.226562 8.855469 "/>
<path style=" stroke:none;fill-rule:evenodd;fill:rgb(100%,49.803922%,45.098039%);fill-opacity:1;" d="M 24.226562 12.457031 L 29.894531 12.457031 L 29.894531 10.757812 L 24.226562 10.757812 Z M 24.226562 12.457031 "/>
<path style=" stroke:none;fill-rule:evenodd;fill:rgb(100%,49.803922%,45.098039%);fill-opacity:1;" d="M 24.226562 16.054688 L 29.894531 16.054688 L 29.894531 14.355469 L 24.226562 14.355469 Z M 24.226562 16.054688 "/>
<path style=" stroke:none;fill-rule:evenodd;fill:rgb(100%,49.803922%,45.098039%);fill-opacity:1;" d="M 24.226562 19.65625 L 29.894531 19.65625 L 29.894531 17.957031 L 24.226562 17.957031 Z M 24.226562 19.65625 "/>
<path style=" stroke:none;fill-rule:evenodd;fill:rgb(100%,49.803922%,45.098039%);fill-opacity:1;" d="M 1.890625 25.621094 L 5.007812 25.621094 L 5.007812 22.785156 L 1.890625 22.785156 Z M 1.890625 25.621094 "/>
<path style=" stroke:none;fill-rule:evenodd;fill:rgb(100%,49.803922%,45.098039%);fill-opacity:1;" d="M 6.707031 25.621094 L 9.824219 25.621094 L 9.824219 22.785156 L 6.707031 22.785156 Z M 6.707031 25.621094 "/>
<path style=" stroke:none;fill-rule:evenodd;fill:rgb(100%,49.803922%,45.098039%);fill-opacity:1;" d="M 6.707031 4.023438 L 9.824219 4.023438 L 9.824219 1.1875 L 6.707031 1.1875 Z M 6.707031 4.023438 "/>
<path style=" stroke:none;fill-rule:evenodd;fill:rgb(100%,49.803922%,45.098039%);fill-opacity:1;" d="M 1.890625 4.023438 L 5.007812 4.023438 L 5.007812 1.1875 L 1.890625 1.1875 Z M 1.890625 4.023438 "/>
<path style=" stroke:none;fill-rule:evenodd;fill:rgb(100%,49.803922%,45.098039%);fill-opacity:1;" d="M 4.441406 8.953125 L 7.277344 8.953125 L 7.277344 5.835938 L 4.441406 5.835938 Z M 4.441406 8.953125 "/>
<path style=" stroke:none;fill-rule:evenodd;fill:rgb(100%,49.803922%,45.098039%);fill-opacity:1;" d="M 12.832031 4.164062 L 15.667969 4.164062 L 15.667969 1.046875 L 12.832031 1.046875 Z M 12.832031 4.164062 "/>
<path style=" stroke:none;fill-rule:evenodd;fill:rgb(100%,49.803922%,45.098039%);fill-opacity:1;" d="M 17.648438 4.164062 L 20.484375 4.164062 L 20.484375 1.046875 L 17.648438 1.046875 Z M 17.648438 4.164062 "/>
<path style=" stroke:none;fill-rule:evenodd;fill:rgb(100%,49.803922%,45.098039%);fill-opacity:1;" d="M 23.632812 4.164062 L 26.46875 4.164062 L 26.46875 1.046875 L 23.632812 1.046875 Z M 23.632812 4.164062 "/>
<path style=" stroke:none;fill-rule:evenodd;fill:rgb(100%,49.803922%,45.098039%);fill-opacity:1;" d="M 28.449219 4.164062 L 31.285156 4.164062 L 31.285156 1.046875 L 28.449219 1.046875 Z M 28.449219 4.164062 "/>
<path style=" stroke:none;fill-rule:evenodd;fill:rgb(100%,49.803922%,45.098039%);fill-opacity:1;" d="M 33.242188 12.554688 L 36.078125 12.554688 L 36.078125 9.4375 L 33.242188 9.4375 Z M 33.242188 12.554688 "/>
<path style=" stroke:none;fill-rule:evenodd;fill:rgb(100%,49.803922%,45.098039%);fill-opacity:1;" d="M 36.839844 12.554688 L 39.675781 12.554688 L 39.675781 9.4375 L 36.839844 9.4375 Z M 36.839844 12.554688 "/>
<path style=" stroke:none;fill-rule:evenodd;fill:rgb(100%,49.803922%,45.098039%);fill-opacity:1;" d="M 36.839844 17.375 L 39.675781 17.375 L 39.675781 14.257812 L 36.839844 14.257812 Z M 36.839844 17.375 "/>
<path style=" stroke:none;fill-rule:evenodd;fill:rgb(100%,49.803922%,45.098039%);fill-opacity:1;" d="M 33.242188 17.375 L 36.078125 17.375 L 36.078125 14.257812 L 33.242188 14.257812 Z M 33.242188 17.375 "/>
<path style=" stroke:none;fill-rule:evenodd;fill:rgb(100%,49.803922%,45.098039%);fill-opacity:1;" d="M 28.449219 25.765625 L 31.285156 25.765625 L 31.285156 22.648438 L 28.449219 22.648438 Z M 28.449219 25.765625 "/>
<path style=" stroke:none;fill-rule:evenodd;fill:rgb(100%,49.803922%,45.098039%);fill-opacity:1;" d="M 23.632812 25.765625 L 26.46875 25.765625 L 26.46875 22.648438 L 23.632812 22.648438 Z M 23.632812 25.765625 "/>
<path style=" stroke:none;fill-rule:evenodd;fill:rgb(100%,49.803922%,45.098039%);fill-opacity:1;" d="M 17.648438 25.765625 L 20.484375 25.765625 L 20.484375 22.648438 L 17.648438 22.648438 Z M 17.648438 25.765625 "/>
<path style=" stroke:none;fill-rule:evenodd;fill:rgb(100%,49.803922%,45.098039%);fill-opacity:1;" d="M 12.832031 25.765625 L 15.667969 25.765625 L 15.667969 22.648438 L 12.832031 22.648438 Z M 12.832031 25.765625 "/>
<path style=" stroke:none;fill-rule:evenodd;fill:rgb(100%,49.803922%,45.098039%);fill-opacity:1;" d="M 4.441406 13.773438 L 7.277344 13.773438 L 7.277344 10.65625 L 4.441406 10.65625 Z M 4.441406 13.773438 "/>
</g>
</svg>
