<?xml version="1.0" encoding="UTF-8" standalone="no"?>
<svg
   xmlns:dc="http://purl.org/dc/elements/1.1/"
   xmlns:cc="http://creativecommons.org/ns#"
   xmlns:rdf="http://www.w3.org/1999/02/22-rdf-syntax-ns#"
   xmlns:svg="http://www.w3.org/2000/svg"
   xmlns="http://www.w3.org/2000/svg"
   xmlns:sodipodi="http://sodipodi.sourceforge.net/DTD/sodipodi-0.dtd"
   xmlns:inkscape="http://www.inkscape.org/namespaces/inkscape"
   width="41pt"
   height="27pt"
   viewBox="0 0 41 27"
   version="1.1"
   id="svg19318"
   inkscape:version="0.91 r13725"
   sodipodi:docname="fab-speakers-noss-edits-diff-ended-input.GTP-ungrouped.svg">
  <metadata
     id="metadata19377">
    <rdf:RDF>
      <cc:Work
         rdf:about="">
        <dc:format>image/svg+xml</dc:format>
        <dc:type
           rdf:resource="http://purl.org/dc/dcmitype/StillImage" />
        <dc:title></dc:title>
      </cc:Work>
    </rdf:RDF>
  </metadata>
  <defs
     id="defs19375" />
  <sodipodi:namedview
     pagecolor="#ffffff"
     bordercolor="#666666"
     borderopacity="1"
     objecttolerance="10"
     gridtolerance="10"
     guidetolerance="10"
     inkscape:pageopacity="0"
     inkscape:pageshadow="2"
     inkscape:window-width="694"
     inkscape:window-height="480"
     id="namedview19373"
     showgrid="false"
     inkscape:zoom="6.0487805"
     inkscape:cx="3.6370968"
     inkscape:cy="16.875"
     inkscape:window-x="0"
     inkscape:window-y="0"
     inkscape:window-maximized="0"
     inkscape:current-layer="svg19318" />
  <path
     inkscape:connector-curvature="0"
     id="path19321"
     d="m 10.621094,19.65625 5.667968,0 0,-1.699219 -5.667968,0 z m 0,0"
     style="fill:#ff7d73;fill-opacity:1;fill-rule:evenodd;stroke:none" />
  <path
     inkscape:connector-curvature="0"
     id="path19323"
     d="m 10.621094,16.054688 5.667968,0 0,-1.699219 -5.667968,0 z m 0,0"
     style="fill:#ff7d73;fill-opacity:1;fill-rule:evenodd;stroke:none" />
  <path
     inkscape:connector-curvature="0"
     id="path19325"
     d="m 10.621094,12.457031 5.667968,0 0,-1.699219 -5.667968,0 z m 0,0"
     style="fill:#ff7d73;fill-opacity:1;fill-rule:evenodd;stroke:none" />
  <path
     inkscape:connector-curvature="0"
     id="path19327"
     d="m 10.621094,8.855469 5.667968,0 0,-1.699219 -5.667968,0 z m 0,0"
     style="fill:#ff7d73;fill-opacity:1;fill-rule:evenodd;stroke:none" />
  <path
     inkscape:connector-curvature="0"
     id="path19329"
     d="m 24.226562,8.855469 5.667969,0 0,-1.699219 -5.667969,0 z m 0,0"
     style="fill:#ff7d73;fill-opacity:1;fill-rule:evenodd;stroke:none" />
  <path
     inkscape:connector-curvature="0"
     id="path19331"
     d="m 24.226562,12.457031 5.667969,0 0,-1.699219 -5.667969,0 z m 0,0"
     style="fill:#ff7d73;fill-opacity:1;fill-rule:evenodd;stroke:none" />
  <path
     inkscape:connector-curvature="0"
     id="path19333"
     d="m 24.226562,16.054688 5.667969,0 0,-1.699219 -5.667969,0 z m 0,0"
     style="fill:#ff7d73;fill-opacity:1;fill-rule:evenodd;stroke:none" />
  <path
     inkscape:connector-curvature="0"
     id="path19335"
     d="m 24.226562,19.65625 5.667969,0 0,-1.699219 -5.667969,0 z m 0,0"
     style="fill:#ff7d73;fill-opacity:1;fill-rule:evenodd;stroke:none" />
  <path
     inkscape:connector-curvature="0"
     id="path19337"
     d="m 1.890625,25.621094 3.117187,0 0,-2.835938 -3.117187,0 z m 0,0"
     style="fill:#ff7d73;fill-opacity:1;fill-rule:evenodd;stroke:none" />
  <path
     inkscape:connector-curvature="0"
     id="path19339"
     d="m 6.707031,25.621094 3.117188,0 0,-2.835938 -3.117188,0 z m 0,0"
     style="fill:#ff7d73;fill-opacity:1;fill-rule:evenodd;stroke:none" />
  <path
     inkscape:connector-curvature="0"
     id="path19341"
     d="m 6.707031,4.023438 3.117188,0 0,-2.835938 -3.117188,0 z m 0,0"
     style="fill:#ff7d73;fill-opacity:1;fill-rule:evenodd;stroke:none" />
  <path
     inkscape:connector-curvature="0"
     id="path19343"
     d="m 1.890625,4.023438 3.117187,0 0,-2.835938 -3.117187,0 z m 0,0"
     style="fill:#ff7d73;fill-opacity:1;fill-rule:evenodd;stroke:none" />
  <path
     inkscape:connector-curvature="0"
     id="path19345"
     d="m 4.441406,8.953125 2.835938,0 0,-3.117187 -2.835938,0 z m 0,0"
     style="fill:#ff7d73;fill-opacity:1;fill-rule:evenodd;stroke:none" />
  <path
     inkscape:connector-curvature="0"
     id="path19347"
     d="m 12.832031,4.164062 2.835938,0 0,-3.117187 -2.835938,0 z m 0,0"
     style="fill:#ff7d73;fill-opacity:1;fill-rule:evenodd;stroke:none" />
  <path
     inkscape:connector-curvature="0"
     id="path19349"
     d="m 17.648438,4.164062 2.835937,0 0,-3.117187 -2.835937,0 z m 0,0"
     style="fill:#ff7d73;fill-opacity:1;fill-rule:evenodd;stroke:none" />
  <path
     inkscape:connector-curvature="0"
     id="path19351"
     d="m 23.632812,4.164062 2.835938,0 0,-3.117187 -2.835938,0 z m 0,0"
     style="fill:#ff7d73;fill-opacity:1;fill-rule:evenodd;stroke:none" />
  <path
     inkscape:connector-curvature="0"
     id="path19353"
     d="m 28.449219,4.164062 2.835937,0 0,-3.117187 -2.835937,0 z m 0,0"
     style="fill:#ff7d73;fill-opacity:1;fill-rule:evenodd;stroke:none" />
  <path
     inkscape:connector-curvature="0"
     id="path19355"
     d="m 33.242188,12.554688 2.835937,0 0,-3.117188 -2.835937,0 z m 0,0"
     style="fill:#ff7d73;fill-opacity:1;fill-rule:evenodd;stroke:none" />
  <path
     inkscape:connector-curvature="0"
     id="path19357"
     d="m 36.839844,12.554688 2.835937,0 0,-3.117188 -2.835937,0 z m 0,0"
     style="fill:#ff7d73;fill-opacity:1;fill-rule:evenodd;stroke:none" />
  <path
     inkscape:connector-curvature="0"
     id="path19359"
     d="m 36.839844,17.375 2.835937,0 0,-3.117188 -2.835937,0 z m 0,0"
     style="fill:#ff7d73;fill-opacity:1;fill-rule:evenodd;stroke:none" />
  <path
     inkscape:connector-curvature="0"
     id="path19361"
     d="m 33.242188,17.375 2.835937,0 0,-3.117188 -2.835937,0 z m 0,0"
     style="fill:#ff7d73;fill-opacity:1;fill-rule:evenodd;stroke:none" />
  <path
     inkscape:connector-curvature="0"
     id="path19363"
     d="m 28.449219,25.765625 2.835937,0 0,-3.117187 -2.835937,0 z m 0,0"
     style="fill:#ff7d73;fill-opacity:1;fill-rule:evenodd;stroke:none" />
  <path
     inkscape:connector-curvature="0"
     id="path19365"
     d="m 23.632812,25.765625 2.835938,0 0,-3.117187 -2.835938,0 z m 0,0"
     style="fill:#ff7d73;fill-opacity:1;fill-rule:evenodd;stroke:none" />
  <path
     inkscape:connector-curvature="0"
     id="path19367"
     d="m 17.648438,25.765625 2.835937,0 0,-3.117187 -2.835937,0 z m 0,0"
     style="fill:#ff7d73;fill-opacity:1;fill-rule:evenodd;stroke:none" />
  <path
     inkscape:connector-curvature="0"
     id="path19369"
     d="m 12.832031,25.765625 2.835938,0 0,-3.117187 -2.835938,0 z m 0,0"
     style="fill:#ff7d73;fill-opacity:1;fill-rule:evenodd;stroke:none" />
  <path
     inkscape:connector-curvature="0"
     id="path19371"
     d="m 4.441406,13.773438 2.835938,0 0,-3.117188 -2.835938,0 z m 0,0"
     style="fill:#ff7d73;fill-opacity:1;fill-rule:evenodd;stroke:none" />
</svg>
