<svg xmlns:dc="http://purl.org/dc/elements/1.1/" xmlns:cc="http://creativecommons.org/ns#" xmlns:rdf="http://www.w3.org/1999/02/22-rdf-syntax-ns#" xmlns:svg="http://www.w3.org/2000/svg" xmlns="http://www.w3.org/2000/svg" xmlns:sodipodi="http://sodipodi.sourceforge.net/DTD/sodipodi-0.dtd" xmlns:inkscape="http://www.inkscape.org/namespaces/inkscape" width="41pt" height="27pt" viewBox="0 0 41 27" version="1.1" id="svg19318" inkscape:version="0.91 r13725" sodipodi:docname="fab-speakers-noss-edits-diff-ended-input.GTP-ungrouped.svg">
  <metadata id="metadata19377">
    <rdf:RDF>
      <cc:Work rdf:about="">
        <dc:format>image/svg+xml</dc:format>
        <dc:type rdf:resource="http://purl.org/dc/dcmitype/StillImage"/>
        <dc:title/>
      </cc:Work>
    </rdf:RDF>
  </metadata>
  <defs id="defs19375"/>
  <sodipodi:namedview pagecolor="#ffffff" bordercolor="#666666" borderopacity="1" objecttolerance="10" gridtolerance="10" guidetolerance="10" inkscape:pageopacity="0" inkscape:pageshadow="2" inkscape:window-width="694" inkscape:window-height="480" id="namedview19373" showgrid="false" inkscape:zoom="6.0487805" inkscape:cx="3.6370968" inkscape:cy="16.875" inkscape:window-x="0" inkscape:window-y="0" inkscape:window-maximized="0" inkscape:current-layer="svg19318"/>
  <path inkscape:connector-curvature="0" id="path19321" d="m 10.7599669089,19.5173770911 5.3902221822000005,0 0,-1.4214731822 -5.3902221822000005,0 z m 0,0" style="fill:#ff7d73;fill-opacity:1;fill-rule:evenodd;stroke:none"/>
  <path inkscape:connector-curvature="0" id="path19323" d="m 10.7599669089,15.915815091099999 5.3902221822000005,0 0,-1.4214731822 -5.3902221822000005,0 z m 0,0" style="fill:#ff7d73;fill-opacity:1;fill-rule:evenodd;stroke:none"/>
  <path inkscape:connector-curvature="0" id="path19325" d="m 10.7599669089,12.3181580911 5.3902221822000005,0 0,-1.4214731822 -5.3902221822000005,0 z m 0,0" style="fill:#ff7d73;fill-opacity:1;fill-rule:evenodd;stroke:none"/>
  <path inkscape:connector-curvature="0" id="path19327" d="m 10.7599669089,8.7165960911 5.3902221822000005,0 0,-1.4214731822 -5.3902221822000005,0 z m 0,0" style="fill:#ff7d73;fill-opacity:1;fill-rule:evenodd;stroke:none"/>
  <path inkscape:connector-curvature="0" id="path19329" d="m 24.365434908900003,8.7165960911 5.390223182200001,0 0,-1.4214731822 -5.390223182200001,0 z m 0,0" style="fill:#ff7d73;fill-opacity:1;fill-rule:evenodd;stroke:none"/>
  <path inkscape:connector-curvature="0" id="path19331" d="m 24.365434908900003,12.3181580911 5.390223182200001,0 0,-1.4214731822 -5.390223182200001,0 z m 0,0" style="fill:#ff7d73;fill-opacity:1;fill-rule:evenodd;stroke:none"/>
  <path inkscape:connector-curvature="0" id="path19333" d="m 24.365434908900003,15.915815091099999 5.390223182200001,0 0,-1.4214731822 -5.390223182200001,0 z m 0,0" style="fill:#ff7d73;fill-opacity:1;fill-rule:evenodd;stroke:none"/>
  <path inkscape:connector-curvature="0" id="path19335" d="m 24.365434908900003,19.5173770911 5.390223182200001,0 0,-1.4214731822 -5.390223182200001,0 z m 0,0" style="fill:#ff7d73;fill-opacity:1;fill-rule:evenodd;stroke:none"/>
  <path inkscape:connector-curvature="0" id="path19337" d="m 2.0294979089,25.482221091099998 2.8394411822,0 0,-2.5581921822 -2.8394411822,0 z m 0,0" style="fill:#ff7d73;fill-opacity:1;fill-rule:evenodd;stroke:none"/>
  <path inkscape:connector-curvature="0" id="path19339" d="m 6.8459039089,25.482221091099998 2.8394421822,0 0,-2.5581921822 -2.8394421822,0 z m 0,0" style="fill:#ff7d73;fill-opacity:1;fill-rule:evenodd;stroke:none"/>
  <path inkscape:connector-curvature="0" id="path19341" d="m 6.8459039089,3.8845650911 2.8394421822,0 0,-2.5581921822 -2.8394421822,0 z m 0,0" style="fill:#ff7d73;fill-opacity:1;fill-rule:evenodd;stroke:none"/>
  <path inkscape:connector-curvature="0" id="path19343" d="m 2.0294979089,3.8845650911 2.8394411822,0 0,-2.5581921822 -2.8394411822,0 z m 0,0" style="fill:#ff7d73;fill-opacity:1;fill-rule:evenodd;stroke:none"/>
  <path inkscape:connector-curvature="0" id="path19345" d="m 4.5802789089,8.8142520911 2.5581921822,0 0,-2.8394411822 -2.5581921822,0 z m 0,0" style="fill:#ff7d73;fill-opacity:1;fill-rule:evenodd;stroke:none"/>
  <path inkscape:connector-curvature="0" id="path19347" d="m 12.9709039089,4.025189091100001 2.5581921822,0 0,-2.8394411822 -2.5581921822,0 z m 0,0" style="fill:#ff7d73;fill-opacity:1;fill-rule:evenodd;stroke:none"/>
  <path inkscape:connector-curvature="0" id="path19349" d="m 17.7873109089,4.025189091100001 2.5581911822,0 0,-2.8394411822 -2.5581911822,0 z m 0,0" style="fill:#ff7d73;fill-opacity:1;fill-rule:evenodd;stroke:none"/>
  <path inkscape:connector-curvature="0" id="path19351" d="m 23.771684908900003,4.025189091100001 2.5581921822,0 0,-2.8394411822 -2.5581921822,0 z m 0,0" style="fill:#ff7d73;fill-opacity:1;fill-rule:evenodd;stroke:none"/>
  <path inkscape:connector-curvature="0" id="path19353" d="m 28.5880919089,4.025189091100001 2.5581911822,0 0,-2.8394411822 -2.5581911822,0 z m 0,0" style="fill:#ff7d73;fill-opacity:1;fill-rule:evenodd;stroke:none"/>
  <path inkscape:connector-curvature="0" id="path19355" d="m 33.3810609089,12.4158150911 2.5581911822,0 0,-2.8394421822 -2.5581911822,0 z m 0,0" style="fill:#ff7d73;fill-opacity:1;fill-rule:evenodd;stroke:none"/>
  <path inkscape:connector-curvature="0" id="path19357" d="m 36.9787169089,12.4158150911 2.5581911822,0 0,-2.8394421822 -2.5581911822,0 z m 0,0" style="fill:#ff7d73;fill-opacity:1;fill-rule:evenodd;stroke:none"/>
  <path inkscape:connector-curvature="0" id="path19359" d="m 36.9787169089,17.2361270911 2.5581911822,0 0,-2.8394421822 -2.5581911822,0 z m 0,0" style="fill:#ff7d73;fill-opacity:1;fill-rule:evenodd;stroke:none"/>
  <path inkscape:connector-curvature="0" id="path19361" d="m 33.3810609089,17.2361270911 2.5581911822,0 0,-2.8394421822 -2.5581911822,0 z m 0,0" style="fill:#ff7d73;fill-opacity:1;fill-rule:evenodd;stroke:none"/>
  <path inkscape:connector-curvature="0" id="path19363" d="m 28.5880919089,25.6267520911 2.5581911822,0 0,-2.8394411822 -2.5581911822,0 z m 0,0" style="fill:#ff7d73;fill-opacity:1;fill-rule:evenodd;stroke:none"/>
  <path inkscape:connector-curvature="0" id="path19365" d="m 23.771684908900003,25.6267520911 2.5581921822,0 0,-2.8394411822 -2.5581921822,0 z m 0,0" style="fill:#ff7d73;fill-opacity:1;fill-rule:evenodd;stroke:none"/>
  <path inkscape:connector-curvature="0" id="path19367" d="m 17.7873109089,25.6267520911 2.5581911822,0 0,-2.8394411822 -2.5581911822,0 z m 0,0" style="fill:#ff7d73;fill-opacity:1;fill-rule:evenodd;stroke:none"/>
  <path inkscape:connector-curvature="0" id="path19369" d="m 12.9709039089,25.6267520911 2.5581921822,0 0,-2.8394411822 -2.5581921822,0 z m 0,0" style="fill:#ff7d73;fill-opacity:1;fill-rule:evenodd;stroke:none"/>
  <path inkscape:connector-curvature="0" id="path19371" d="m 4.5802789089,13.6345650911 2.5581921822,0 0,-2.8394421822 -2.5581921822,0 z m 0,0" style="fill:#ff7d73;fill-opacity:1;fill-rule:evenodd;stroke:none"/>
</svg>