<svg xmlns:dc="http://purl.org/dc/elements/1.1/" xmlns:cc="http://creativecommons.org/ns#" xmlns:rdf="http://www.w3.org/1999/02/22-rdf-syntax-ns#" xmlns:svg="http://www.w3.org/2000/svg" xmlns="http://www.w3.org/2000/svg" xmlns:sodipodi="http://sodipodi.sourceforge.net/DTD/sodipodi-0.dtd" xmlns:inkscape="http://www.inkscape.org/namespaces/inkscape" width="41pt" height="27pt" viewBox="0 0 41 27" version="1.1" id="svg19318" inkscape:version="0.91 r13725" sodipodi:docname="fab-speakers-noss-edits-diff-ended-input.GTP-ungrouped.svg">
  <metadata id="metadata19377">
    <rdf:RDF>
      <cc:Work rdf:about="">
        <dc:format>image/svg+xml</dc:format>
        <dc:type rdf:resource="http://purl.org/dc/dcmitype/StillImage"/>
        <dc:title/>
      </cc:Work>
    </rdf:RDF>
  </metadata>
  <defs id="defs19375"/>
  <sodipodi:namedview pagecolor="#ffffff" bordercolor="#666666" borderopacity="1" objecttolerance="10" gridtolerance="10" guidetolerance="10" inkscape:pageopacity="0" inkscape:pageshadow="2" inkscape:window-width="694" inkscape:window-height="480" id="namedview19373" showgrid="false" inkscape:zoom="6.0487805" inkscape:cx="3.6370968" inkscape:cy="16.875" inkscape:window-x="0" inkscape:window-y="0" inkscape:window-maximized="0" inkscape:current-layer="svg19318"/>
  <path inkscape:connector-curvature="0" id="path19321" d="m 10.898839817799999,19.3785041822 5.1124763644,0 0,-1.1437273644000001 -5.1124763644,0 z m 0,0" style="fill:#ff7d73;fill-opacity:1;fill-rule:evenodd;stroke:none"/>
  <path inkscape:connector-curvature="0" id="path19323" d="m 10.898839817799999,15.776942182199999 5.1124763644,0 0,-1.1437273644000001 -5.1124763644,0 z m 0,0" style="fill:#ff7d73;fill-opacity:1;fill-rule:evenodd;stroke:none"/>
  <path inkscape:connector-curvature="0" id="path19325" d="m 10.898839817799999,12.179285182200001 5.1124763644,0 0,-1.1437273644000001 -5.1124763644,0 z m 0,0" style="fill:#ff7d73;fill-opacity:1;fill-rule:evenodd;stroke:none"/>
  <path inkscape:connector-curvature="0" id="path19327" d="m 10.898839817799999,8.5777231822 5.1124763644,0 0,-1.1437273644000001 -5.1124763644,0 z m 0,0" style="fill:#ff7d73;fill-opacity:1;fill-rule:evenodd;stroke:none"/>
  <path inkscape:connector-curvature="0" id="path19329" d="m 24.5043078178,8.5777231822 5.1124773644,0 0,-1.1437273644000001 -5.1124773644,0 z m 0,0" style="fill:#ff7d73;fill-opacity:1;fill-rule:evenodd;stroke:none"/>
  <path inkscape:connector-curvature="0" id="path19331" d="m 24.5043078178,12.179285182200001 5.1124773644,0 0,-1.1437273644000001 -5.1124773644,0 z m 0,0" style="fill:#ff7d73;fill-opacity:1;fill-rule:evenodd;stroke:none"/>
  <path inkscape:connector-curvature="0" id="path19333" d="m 24.5043078178,15.776942182199999 5.1124773644,0 0,-1.1437273644000001 -5.1124773644,0 z m 0,0" style="fill:#ff7d73;fill-opacity:1;fill-rule:evenodd;stroke:none"/>
  <path inkscape:connector-curvature="0" id="path19335" d="m 24.5043078178,19.3785041822 5.1124773644,0 0,-1.1437273644000001 -5.1124773644,0 z m 0,0" style="fill:#ff7d73;fill-opacity:1;fill-rule:evenodd;stroke:none"/>
  <path inkscape:connector-curvature="0" id="path19337" d="m 2.1683708178,25.3433481822 2.5616953644,0 0,-2.2804463644 -2.5616953644,0 z m 0,0" style="fill:#ff7d73;fill-opacity:1;fill-rule:evenodd;stroke:none"/>
  <path inkscape:connector-curvature="0" id="path19339" d="m 6.984776817799999,25.3433481822 2.5616963644,0 0,-2.2804463644 -2.5616963644,0 z m 0,0" style="fill:#ff7d73;fill-opacity:1;fill-rule:evenodd;stroke:none"/>
  <path inkscape:connector-curvature="0" id="path19341" d="m 6.984776817799999,3.7456921821999996 2.5616963644,0 0,-2.2804463644 -2.5616963644,0 z m 0,0" style="fill:#ff7d73;fill-opacity:1;fill-rule:evenodd;stroke:none"/>
  <path inkscape:connector-curvature="0" id="path19343" d="m 2.1683708178,3.7456921821999996 2.5616953644,0 0,-2.2804463644 -2.5616953644,0 z m 0,0" style="fill:#ff7d73;fill-opacity:1;fill-rule:evenodd;stroke:none"/>
  <path inkscape:connector-curvature="0" id="path19345" d="m 4.719151817799999,8.6753791822 2.2804463644,0 0,-2.5616953644 -2.2804463644,0 z m 0,0" style="fill:#ff7d73;fill-opacity:1;fill-rule:evenodd;stroke:none"/>
  <path inkscape:connector-curvature="0" id="path19347" d="m 13.1097768178,3.8863161822000003 2.2804463644,0 0,-2.5616953644 -2.2804463644,0 z m 0,0" style="fill:#ff7d73;fill-opacity:1;fill-rule:evenodd;stroke:none"/>
  <path inkscape:connector-curvature="0" id="path19349" d="m 17.9261838178,3.8863161822000003 2.2804453644,0 0,-2.5616953644 -2.2804453644,0 z m 0,0" style="fill:#ff7d73;fill-opacity:1;fill-rule:evenodd;stroke:none"/>
  <path inkscape:connector-curvature="0" id="path19351" d="m 23.9105578178,3.8863161822000003 2.2804463644,0 0,-2.5616953644 -2.2804463644,0 z m 0,0" style="fill:#ff7d73;fill-opacity:1;fill-rule:evenodd;stroke:none"/>
  <path inkscape:connector-curvature="0" id="path19353" d="m 28.7269648178,3.8863161822000003 2.2804453644,0 0,-2.5616953644 -2.2804453644,0 z m 0,0" style="fill:#ff7d73;fill-opacity:1;fill-rule:evenodd;stroke:none"/>
  <path inkscape:connector-curvature="0" id="path19355" d="m 33.5199338178,12.2769421822 2.2804453644,0 0,-2.5616963644 -2.2804453644,0 z m 0,0" style="fill:#ff7d73;fill-opacity:1;fill-rule:evenodd;stroke:none"/>
  <path inkscape:connector-curvature="0" id="path19357" d="m 37.1175898178,12.2769421822 2.2804453644,0 0,-2.5616963644 -2.2804453644,0 z m 0,0" style="fill:#ff7d73;fill-opacity:1;fill-rule:evenodd;stroke:none"/>
  <path inkscape:connector-curvature="0" id="path19359" d="m 37.1175898178,17.0972541822 2.2804453644,0 0,-2.5616963644 -2.2804453644,0 z m 0,0" style="fill:#ff7d73;fill-opacity:1;fill-rule:evenodd;stroke:none"/>
  <path inkscape:connector-curvature="0" id="path19361" d="m 33.5199338178,17.0972541822 2.2804453644,0 0,-2.5616963644 -2.2804453644,0 z m 0,0" style="fill:#ff7d73;fill-opacity:1;fill-rule:evenodd;stroke:none"/>
  <path inkscape:connector-curvature="0" id="path19363" d="m 28.7269648178,25.4878791822 2.2804453644,0 0,-2.5616953644 -2.2804453644,0 z m 0,0" style="fill:#ff7d73;fill-opacity:1;fill-rule:evenodd;stroke:none"/>
  <path inkscape:connector-curvature="0" id="path19365" d="m 23.9105578178,25.4878791822 2.2804463644,0 0,-2.5616953644 -2.2804463644,0 z m 0,0" style="fill:#ff7d73;fill-opacity:1;fill-rule:evenodd;stroke:none"/>
  <path inkscape:connector-curvature="0" id="path19367" d="m 17.9261838178,25.4878791822 2.2804453644,0 0,-2.5616953644 -2.2804453644,0 z m 0,0" style="fill:#ff7d73;fill-opacity:1;fill-rule:evenodd;stroke:none"/>
  <path inkscape:connector-curvature="0" id="path19369" d="m 13.1097768178,25.4878791822 2.2804463644,0 0,-2.5616953644 -2.2804463644,0 z m 0,0" style="fill:#ff7d73;fill-opacity:1;fill-rule:evenodd;stroke:none"/>
  <path inkscape:connector-curvature="0" id="path19371" d="m 4.719151817799999,13.4956921822 2.2804463644,0 0,-2.5616963644 -2.2804463644,0 z m 0,0" style="fill:#ff7d73;fill-opacity:1;fill-rule:evenodd;stroke:none"/>
</svg>