<?xml version="1.0" encoding="UTF-8" standalone="no"?>
<svg
   xmlns:dc="http://purl.org/dc/elements/1.1/"
   xmlns:cc="http://creativecommons.org/ns#"
   xmlns:rdf="http://www.w3.org/1999/02/22-rdf-syntax-ns#"
   xmlns:svg="http://www.w3.org/2000/svg"
   xmlns="http://www.w3.org/2000/svg"
   xmlns:sodipodi="http://sodipodi.sourceforge.net/DTD/sodipodi-0.dtd"
   xmlns:inkscape="http://www.inkscape.org/namespaces/inkscape"
   width="41pt"
   height="27pt"
   viewBox="0 0 41 27"
   version="1.1"
   id="svg19318"
   inkscape:version="0.91 r13725"
   sodipodi:docname="fab-speakers-noss-edits-diff-ended-input.GTP-ungrouped.shrunk30mil.svg">
  <metadata
     id="metadata19377">
    <rdf:RDF>
      <cc:Work
         rdf:about="">
        <dc:format>image/svg+xml</dc:format>
        <dc:type
           rdf:resource="http://purl.org/dc/dcmitype/StillImage" />
        <dc:title />
      </cc:Work>
    </rdf:RDF>
  </metadata>
  <defs
     id="defs19375" />
  <sodipodi:namedview
     pagecolor="#ffffff"
     bordercolor="#666666"
     borderopacity="1"
     objecttolerance="10"
     gridtolerance="10"
     guidetolerance="10"
     inkscape:pageopacity="0"
     inkscape:pageshadow="2"
     inkscape:window-width="1161"
     inkscape:window-height="830"
     id="namedview19373"
     showgrid="false"
     inkscape:zoom="6.0487805"
     inkscape:cx="27.989883"
     inkscape:cy="16.875"
     inkscape:window-x="0"
     inkscape:window-y="0"
     inkscape:window-maximized="0"
     inkscape:current-layer="svg19318" />
  <path
     inkscape:connector-curvature="0"
     id="path19321"
     d="m 11.037712726699999,19.2396312733 4.8347305466,0 0,-0.8659815466 -4.8347305466,0 z m 0,0"
     style="fill:none;fill-opacity:1;fill-rule:evenodd;stroke:#000000;stroke-opacity:1;stroke-width:0.08;stroke-miterlimit:4;stroke-dasharray:none" />
  <path
     inkscape:connector-curvature="0"
     id="path19323"
     d="m 11.037712726699999,15.6380692733 4.8347305466,0 0,-0.8659815466 -4.8347305466,0 z m 0,0"
     style="fill:none;fill-opacity:1;fill-rule:evenodd;stroke:#000000;stroke-opacity:1;stroke-width:0.08;stroke-miterlimit:4;stroke-dasharray:none" />
  <path
     inkscape:connector-curvature="0"
     id="path19325"
     d="m 11.037712726699999,12.040412273300001 4.8347305466,0 0,-0.8659815466 -4.8347305466,0 z m 0,0"
     style="fill:none;fill-opacity:1;fill-rule:evenodd;stroke:#000000;stroke-opacity:1;stroke-width:0.08;stroke-miterlimit:4;stroke-dasharray:none" />
  <path
     inkscape:connector-curvature="0"
     id="path19327"
     d="m 11.037712726699999,8.4388502733 4.8347305466,0 0,-0.8659815466 -4.8347305466,0 z m 0,0"
     style="fill:none;fill-opacity:1;fill-rule:evenodd;stroke:#000000;stroke-opacity:1;stroke-width:0.08;stroke-miterlimit:4;stroke-dasharray:none" />
  <path
     inkscape:connector-curvature="0"
     id="path19329"
     d="m 24.643180726700002,8.4388502733 4.8347315466000005,0 0,-0.8659815466 -4.8347315466000005,0 z m 0,0"
     style="fill:none;fill-opacity:1;fill-rule:evenodd;stroke:#000000;stroke-opacity:1;stroke-width:0.08;stroke-miterlimit:4;stroke-dasharray:none" />
  <path
     inkscape:connector-curvature="0"
     id="path19331"
     d="m 24.643180726700002,12.040412273300001 4.8347315466000005,0 0,-0.8659815466 -4.8347315466000005,0 z m 0,0"
     style="fill:none;fill-opacity:1;fill-rule:evenodd;stroke:#000000;stroke-opacity:1;stroke-width:0.08;stroke-miterlimit:4;stroke-dasharray:none" />
  <path
     inkscape:connector-curvature="0"
     id="path19333"
     d="m 24.643180726700002,15.6380692733 4.8347315466000005,0 0,-0.8659815466 -4.8347315466000005,0 z m 0,0"
     style="fill:none;fill-opacity:1;fill-rule:evenodd;stroke:#000000;stroke-opacity:1;stroke-width:0.08;stroke-miterlimit:4;stroke-dasharray:none" />
  <path
     inkscape:connector-curvature="0"
     id="path19335"
     d="m 24.643180726700002,19.2396312733 4.8347315466000005,0 0,-0.8659815466 -4.8347315466000005,0 z m 0,0"
     style="fill:none;fill-opacity:1;fill-rule:evenodd;stroke:#000000;stroke-opacity:1;stroke-width:0.08;stroke-miterlimit:4;stroke-dasharray:none" />
  <path
     inkscape:connector-curvature="0"
     id="path19337"
     d="m 2.3072437267,25.204475273299998 2.2839495465999997,0 0,-2.0027005466 -2.2839495465999997,0 z m 0,0"
     style="fill:none;fill-opacity:1;fill-rule:evenodd;stroke:#000000;stroke-opacity:1;stroke-width:0.08;stroke-miterlimit:4;stroke-dasharray:none" />
  <path
     inkscape:connector-curvature="0"
     id="path19339"
     d="m 7.1236497267,25.204475273299998 2.2839505466,0 0,-2.0027005466 -2.2839505466,0 z m 0,0"
     style="fill:none;fill-opacity:1;fill-rule:evenodd;stroke:#000000;stroke-opacity:1;stroke-width:0.08;stroke-miterlimit:4;stroke-dasharray:none" />
  <path
     inkscape:connector-curvature="0"
     id="path19341"
     d="m 7.1236497267,3.6068192732999997 2.2839505466,0 0,-2.0027005466 -2.2839505466,0 z m 0,0"
     style="fill:none;fill-opacity:1;fill-rule:evenodd;stroke:#000000;stroke-opacity:1;stroke-width:0.08;stroke-miterlimit:4;stroke-dasharray:none" />
  <path
     inkscape:connector-curvature="0"
     id="path19343"
     d="m 2.3072437267,3.6068192732999997 2.2839495465999997,0 0,-2.0027005466 -2.2839495465999997,0 z m 0,0"
     style="fill:none;fill-opacity:1;fill-rule:evenodd;stroke:#000000;stroke-opacity:1;stroke-width:0.08;stroke-miterlimit:4;stroke-dasharray:none" />
  <path
     inkscape:connector-curvature="0"
     id="path19345"
     d="m 4.8580247267,8.5365062733 2.0027005466,0 0,-2.2839495465999997 -2.0027005466,0 z m 0,0"
     style="fill:none;fill-opacity:1;fill-rule:evenodd;stroke:#000000;stroke-opacity:1;stroke-width:0.08;stroke-miterlimit:4;stroke-dasharray:none" />
  <path
     inkscape:connector-curvature="0"
     id="path19347"
     d="m 13.2486497267,3.7474432733000005 2.0027005466,0 0,-2.2839495465999997 -2.0027005466,0 z m 0,0"
     style="fill:none;fill-opacity:1;fill-rule:evenodd;stroke:#000000;stroke-opacity:1;stroke-width:0.08;stroke-miterlimit:4;stroke-dasharray:none" />
  <path
     inkscape:connector-curvature="0"
     id="path19349"
     d="m 18.0650567267,3.7474432733000005 2.0026995465999997,0 0,-2.2839495465999997 -2.0026995465999997,0 z m 0,0"
     style="fill:none;fill-opacity:1;fill-rule:evenodd;stroke:#000000;stroke-opacity:1;stroke-width:0.08;stroke-miterlimit:4;stroke-dasharray:none" />
  <path
     inkscape:connector-curvature="0"
     id="path19351"
     d="m 24.049430726700002,3.7474432733000005 2.0027005466,0 0,-2.2839495465999997 -2.0027005466,0 z m 0,0"
     style="fill:none;fill-opacity:1;fill-rule:evenodd;stroke:#000000;stroke-opacity:1;stroke-width:0.08;stroke-miterlimit:4;stroke-dasharray:none" />
  <path
     inkscape:connector-curvature="0"
     id="path19353"
     d="m 28.8658377267,3.7474432733000005 2.0026995465999997,0 0,-2.2839495465999997 -2.0026995465999997,0 z m 0,0"
     style="fill:none;fill-opacity:1;fill-rule:evenodd;stroke:#000000;stroke-opacity:1;stroke-width:0.08;stroke-miterlimit:4;stroke-dasharray:none" />
  <path
     inkscape:connector-curvature="0"
     id="path19355"
     d="m 33.6588067267,12.138069273300001 2.0026995465999997,0 0,-2.2839505466 -2.0026995465999997,0 z m 0,0"
     style="fill:none;fill-opacity:1;fill-rule:evenodd;stroke:#000000;stroke-opacity:1;stroke-width:0.08;stroke-miterlimit:4;stroke-dasharray:none" />
  <path
     inkscape:connector-curvature="0"
     id="path19357"
     d="m 37.2564627267,12.138069273300001 2.0026995465999997,0 0,-2.2839505466 -2.0026995465999997,0 z m 0,0"
     style="fill:none;fill-opacity:1;fill-rule:evenodd;stroke:#000000;stroke-opacity:1;stroke-width:0.08;stroke-miterlimit:4;stroke-dasharray:none" />
  <path
     inkscape:connector-curvature="0"
     id="path19359"
     d="m 37.2564627267,16.9583812733 2.0026995465999997,0 0,-2.2839505466 -2.0026995465999997,0 z m 0,0"
     style="fill:none;fill-opacity:1;fill-rule:evenodd;stroke:#000000;stroke-opacity:1;stroke-width:0.08;stroke-miterlimit:4;stroke-dasharray:none" />
  <path
     inkscape:connector-curvature="0"
     id="path19361"
     d="m 33.6588067267,16.9583812733 2.0026995465999997,0 0,-2.2839505466 -2.0026995465999997,0 z m 0,0"
     style="fill:none;fill-opacity:1;fill-rule:evenodd;stroke:#000000;stroke-opacity:1;stroke-width:0.08;stroke-miterlimit:4;stroke-dasharray:none" />
  <path
     inkscape:connector-curvature="0"
     id="path19363"
     d="m 28.8658377267,25.3490062733 2.0026995465999997,0 0,-2.2839495465999997 -2.0026995465999997,0 z m 0,0"
     style="fill:none;fill-opacity:1;fill-rule:evenodd;stroke:#000000;stroke-opacity:1;stroke-width:0.08;stroke-miterlimit:4;stroke-dasharray:none" />
  <path
     inkscape:connector-curvature="0"
     id="path19365"
     d="m 24.049430726700002,25.3490062733 2.0027005466,0 0,-2.2839495465999997 -2.0027005466,0 z m 0,0"
     style="fill:none;fill-opacity:1;fill-rule:evenodd;stroke:#000000;stroke-opacity:1;stroke-width:0.08;stroke-miterlimit:4;stroke-dasharray:none" />
  <path
     inkscape:connector-curvature="0"
     id="path19367"
     d="m 18.0650567267,25.3490062733 2.0026995465999997,0 0,-2.2839495465999997 -2.0026995465999997,0 z m 0,0"
     style="fill:none;fill-opacity:1;fill-rule:evenodd;stroke:#000000;stroke-opacity:1;stroke-width:0.08;stroke-miterlimit:4;stroke-dasharray:none" />
  <path
     inkscape:connector-curvature="0"
     id="path19369"
     d="m 13.2486497267,25.3490062733 2.0027005466,0 0,-2.2839495465999997 -2.0027005466,0 z m 0,0"
     style="fill:none;fill-opacity:1;fill-rule:evenodd;stroke:#000000;stroke-opacity:1;stroke-width:0.08;stroke-miterlimit:4;stroke-dasharray:none" />
  <path
     inkscape:connector-curvature="0"
     id="path19371"
     d="m 4.8580247267,13.356819273300001 2.0027005466,0 0,-2.2839505466 -2.0027005466,0 z m 0,0"
     style="fill:none;fill-opacity:1;fill-rule:evenodd;stroke:#000000;stroke-opacity:1;stroke-width:0.08;stroke-miterlimit:4;stroke-dasharray:none" />
</svg>
